<?xml version="1.0" encoding="utf-8"?>
<!-- Generator: Adobe Illustrator 23.0.1, SVG Export Plug-In . SVG Version: 6.00 Build 0)  -->
<svg version="1.1" id="Layer_1" xmlns="http://www.w3.org/2000/svg" xmlns:xlink="http://www.w3.org/1999/xlink" x="0px" y="0px"
	 viewBox="0 0 16 16" style="enable-background:new 0 0 16 16;" xml:space="preserve">
<style type="text/css">
	.st0{fill:#CC6D97;}
	.st1{fill-rule:evenodd;clip-rule:evenodd;fill:#CC6D97;}
</style>
<path class="st0" d="M7.1,15.6l-6.6-3.3C0.2,12.1,0,11.8,0,11.4V9.5c0-0.4,0.2-0.7,0.6-0.9L6,6.3v1.1L1,9.5l5.7,2.8
	c0.8,0.4,1.8,0.4,2.7,0L15,9.5l-5-2.1V6.3l5.4,2.3C15.8,8.7,16,9.1,16,9.5v1.9c0,0.4-0.2,0.7-0.6,0.9l-6.6,3.3
	C8.3,15.8,7.7,15.8,7.1,15.6L7.1,15.6z"/>
<path class="st1" d="M7.5,9.5v-6h1v6H7.5z"/>
<path class="st0" d="M10,9.7c0,0.4-0.9,0.8-2,0.8s-2-0.3-2-0.8S6.9,9,8,9S10,9.3,10,9.7z M10,2c0,1.1-0.9,2-2,2S6,3.1,6,2s0.9-2,2-2
	S10,0.9,10,2z"/>
</svg>
